<svg xmlns="http://www.w3.org/2000/svg" width="128" height="128" viewBox="0 0 128 128">
  <defs>
    <style>
      .cls-1 {
        fill: #007236;
      }
    </style>
  </defs>
  <g id="Layer_2" data-name="Layer 2">
    <g id="Layer_2-2" data-name="Layer 2">
      <polygon class="cls-1" points="104.32 104.32 23.68 104.32 23.68 88 16 88 16 112 112 112 112 88 104.32 88 104.32 104.32"/>
      <g>
        <polygon class="cls-1" points="16 40 23.68 40 23.68 23.68 88.96 23.68 88.96 16 16 16 16 40"/>
        <polygon class="cls-1" points="119.02 19.84 108.16 8.98 97.3 19.84 104.32 19.84 104.32 23.68 104.32 28.48 104.32 40 112 40 112 19.84 119.02 19.84"/>
      </g>
    </g>
    <g id="Layer_3" data-name="Layer 3">
      <g>
        <path d="M15,53.65c0-1.09-.09-2.4-.09-3.72h0c-.31,1.15-.73,2.45-1.11,3.51L12.52,57H10.76L9.69,53.46c-.32-1.06-.66-2.35-.9-3.53h0c-.06,1.22-.1,2.62-.18,3.75l-.17,3.44H6.32L7,48.06h3l1,3c.31,1.05.63,2.18.85,3.24h0c.28-1,.62-2.24.95-3.25l1.06-3h2.94l.55,9.06h-2.2Z"/>
        <path d="M22.81,54.8l-.71,2.32H19.76l3-9.06h3l3.09,9.06H26.43l-.77-2.32Zm2.52-1.54-.62-1.92c-.17-.54-.35-1.21-.5-1.75h0c-.15.54-.3,1.23-.46,1.75l-.59,1.92Z"/>
        <path d="M31.66,48.18a21.33,21.33,0,0,1,3-.19,5.43,5.43,0,0,1,3.23.72,2.21,2.21,0,0,1,.91,1.89A2.43,2.43,0,0,1,37,52.83v0a2.31,2.31,0,0,1,1.33,1.7,23,23,0,0,0,.82,2.55H36.88A10.26,10.26,0,0,1,36.19,55c-.27-1.13-.7-1.44-1.62-1.45h-.68v3.56H31.66Zm2.23,3.9h.89c1.12,0,1.79-.51,1.79-1.3s-.62-1.25-1.66-1.27a5.86,5.86,0,0,0-1,.07Z"/>
        <path d="M41.91,48.06h2.23v4h0c.22-.35.46-.68.68-1l2.27-3h2.76l-3.3,3.86,3.48,5.2H47.44L45,53.21l-.86.95v3H41.91Z"/>
        <path d="M52.46,48.06h2.23v4h.05c.22-.35.46-.68.68-1l2.26-3h2.77l-3.3,3.86,3.47,5.2H58l-2.44-3.91-.86.95v3H52.46Z"/>
        <path d="M65.28,48.06v9.06H63V48.06Z"/>
        <path d="M68.71,57.12V48.06h2.63l2.07,3.32A26.29,26.29,0,0,1,75,54.49h0a30.25,30.25,0,0,1-.19-3.78V48.06H77v9.06H74.59l-2.13-3.49a33.75,33.75,0,0,1-1.73-3.2h0c.06,1.2.09,2.47.09,4v2.73Z"/>
        <path d="M89.51,52.5a4.52,4.52,0,0,1-4.89,4.77,4.41,4.41,0,0,1-4.69-4.61,4.59,4.59,0,0,1,4.85-4.75A4.42,4.42,0,0,1,89.51,52.5Zm-7.2.12c0,1.77.92,3,2.43,3s2.39-1.32,2.39-3.08-.86-3-2.41-3S82.31,50.86,82.31,52.62Z"/>
        <path d="M94.73,48.06v9.06H92.47V48.06Z"/>
        <path d="M98.16,57.12V48.06h2.63l2.07,3.32a26.29,26.29,0,0,1,1.63,3.11h0a30.25,30.25,0,0,1-.19-3.78V48.06h2.07v9.06H104l-2.13-3.49a33.75,33.75,0,0,1-1.73-3.2h0c.06,1.2.09,2.47.09,4v2.73Z"/>
        <path d="M111.76,49.78h-2.68V48.06h7.66v1.72H114v7.34h-2.26Z"/>
        <path d="M121.68,48.06v9.06h-2.26V48.06Z"/>
      </g>
      <g>
        <path d="M6.45,75.93a10.9,10.9,0,0,0,4.33,1c1.79,0,2.73-.67,2.73-1.68s-.82-1.53-2.89-2.19c-2.86-.9-4.73-2.33-4.73-4.59,0-2.65,2.46-4.68,6.52-4.68a11.41,11.41,0,0,1,4.4.79l-.87,2.83a8.91,8.91,0,0,0-3.6-.74c-1.69,0-2.51.7-2.51,1.5,0,1,1,1.43,3.2,2.19,3,1,4.47,2.44,4.47,4.63,0,2.61-2.22,4.82-7,4.82a12.21,12.21,0,0,1-4.88-1Z"/>
        <path d="M28.39,64V73c0,2.67,1.13,4,3.12,4s3.17-1.29,3.17-4V64h3.89v8.71c0,4.79-2.69,7.07-7.19,7.07-4.35,0-6.9-2.16-6.9-7.12V64Z"/>
        <path d="M50.48,64V73c0,2.67,1.12,4,3.12,4s3.17-1.29,3.17-4V64h3.89v8.71c0,4.79-2.69,7.07-7.19,7.07s-6.91-2.16-6.91-7.12V64Z"/>
        <path d="M68.73,79.55V64h4.56l3.58,5.69A43.6,43.6,0,0,1,79.68,75h.08a51.11,51.11,0,0,1-.34-6.47V64H83V79.55H78.91l-3.68-6a55.57,55.57,0,0,1-3-5.49l-.08,0c.1,2.05.15,4.24.15,6.77v4.68Z"/>
        <path d="M94.24,67H89.61V64h13.25v3H98.15V79.55H94.24Z"/>
        <path d="M111.88,75.56l-1.23,4h-4L111.88,64H117l5.35,15.53h-4.19l-1.33-4Zm4.37-2.63-1.07-3.29c-.31-.92-.61-2.07-.87-3h0c-.26.93-.51,2.1-.79,3l-1,3.29Z"/>
      </g>
    </g>
  </g>
</svg>
